<?xml version="1.0" encoding="UTF-8"?>
<svg width="120" height="120" viewBox="0 0 120 120" fill="none" xmlns="http://www.w3.org/2000/svg">
  <circle cx="60" cy="60" r="58" fill="#F5F5F5" stroke="#1976D2" stroke-width="4"/>
  <rect x="25" y="40" width="70" height="40" rx="2" fill="#212121"/>
  <rect x="28" y="42" width="10" height="25" rx="1" fill="white"/>
  <rect x="40" y="42" width="10" height="25" rx="1" fill="white"/>
  <rect x="52" y="42" width="10" height="25" rx="1" fill="white"/>
  <rect x="64" y="42" width="10" height="25" rx="1" fill="white"/>
  <rect x="76" y="42" width="10" height="25" rx="1" fill="white"/>
  <rect x="88" y="42" width="10" height="25" rx="1" fill="white"/>
  <rect x="34" y="42" width="6" height="15" rx="1" fill="#616161"/>
  <rect x="46" y="42" width="6" height="15" rx="1" fill="#616161"/>
  <rect x="70" y="42" width="6" height="15" rx="1" fill="#616161"/>
  <rect x="82" y="42" width="6" height="15" rx="1" fill="#616161"/>
</svg>
